# This file uses centimeters as units for non-parametric coordinates.

mtllib water_Ripple_v03.mtl
g default
v 3.864244 1.343680 1.365835
v 3.662414 1.343680 0.969721
v 3.348056 1.343680 0.655363
v 2.951942 1.343680 0.453533
v 2.512846 1.343680 0.383987
v 2.073751 1.343680 0.453533
v 1.677637 1.343680 0.655363
v 1.363280 1.343680 0.969721
v 1.161450 1.343680 1.365835
v 1.091904 1.343680 1.804930
v 1.161450 1.343680 2.244026
v 1.363280 1.343680 2.640139
v 1.677637 1.343680 2.954497
v 2.073751 1.343680 3.156327
v 2.512846 1.343680 3.225873
v 2.951942 1.343679 3.156327
v 3.348055 1.343680 2.954497
v 3.662413 1.343680 2.640139
v 3.864243 1.343680 2.244026
v 3.933789 1.343680 1.804930
v 2.724572 1.343680 1.736136
v 2.692951 1.343680 1.674076
v 2.643700 1.343680 1.624825
v 2.581640 1.343680 1.593204
v 2.512846 1.343680 1.582308
v 2.444052 1.343680 1.593204
v 2.381993 1.343680 1.624825
v 2.332742 1.343680 1.674076
v 2.301121 1.343680 1.736136
v 2.290225 1.343680 1.804930
v 2.301121 1.343680 1.873724
v 2.332742 1.343680 1.935784
v 2.381993 1.343680 1.985035
v 2.444052 1.343680 2.016656
v 2.512846 1.343680 2.027552
v 2.581640 1.343680 2.016656
v 2.643700 1.343680 1.985035
v 2.692951 1.343680 1.935784
v 2.724572 1.343680 1.873724
v 2.735468 1.343680 1.804930
v 2.165493 1.343680 0.735887
v 2.512846 1.343680 0.680872
v 2.860200 1.343680 0.735887
v 3.173552 1.343680 0.895548
v 3.422229 1.343680 1.144225
v 3.581890 1.343680 1.457577
v 3.636904 1.343680 1.804930
v 3.581889 1.343680 2.152283
v 3.422228 1.343680 2.465635
v 3.173551 1.343680 2.714312
v 2.860199 1.343680 2.873973
v 2.512846 1.343680 2.928989
v 2.165493 1.343680 2.873973
v 1.852142 1.343680 2.714312
v 1.603464 1.343680 2.465635
v 1.443804 1.343680 2.152283
v 1.388788 1.343680 1.804930
v 1.443804 1.343680 1.457577
v 1.603464 1.343680 1.144225
v 1.852142 1.343679 0.895548
v 2.512846 1.343680 1.092271
v 2.733070 1.343680 1.127152
v 2.931737 1.343680 1.228377
v 3.089400 1.343680 1.386040
v 3.190625 1.343680 1.584707
v 3.225505 1.343680 1.804930
v 3.190625 1.343680 2.025154
v 3.089400 1.343680 2.223820
v 2.931736 1.343680 2.381483
v 2.733070 1.343680 2.482709
v 2.512846 1.343680 2.517589
v 2.292623 1.343680 2.482709
v 2.093956 1.343680 2.381483
v 1.936294 1.343680 2.223820
v 1.835068 1.343680 2.025154
v 1.800188 1.343680 1.804930
v 1.835068 1.343680 1.584707
v 1.936294 1.343680 1.386040
v 2.093956 1.343680 1.228377
v 2.292623 1.343680 1.127152
v 2.512846 1.343680 1.402399
v 2.637235 1.343680 1.422101
v 2.749448 1.343680 1.479276
v 2.838501 1.343680 1.568328
v 2.895676 1.343680 1.680541
v 2.915378 1.343680 1.804930
v 2.895676 1.343680 1.929319
v 2.838501 1.343680 2.041532
v 2.749448 1.343680 2.130585
v 2.637235 1.343680 2.187760
v 2.512846 1.343680 2.207461
v 2.388457 1.343680 2.187760
v 2.276245 1.343680 2.130585
v 2.187192 1.343680 2.041532
v 2.130017 1.343680 1.929319
v 2.110315 1.343680 1.804930
v 2.130017 1.343680 1.680541
v 2.187192 1.343680 1.568328
v 2.276245 1.343680 1.479276
v 2.388457 1.343680 1.422101
vt 0.792879 0.072886
vt 0.841125 0.072897
vt 0.841125 0.189436
vt 0.792879 0.189455
vt 0.889370 0.072905
vt 0.889370 0.189409
vt 0.937616 0.189318
vt 0.020949 0.072856
vt 0.020949 0.189316
vt 0.069195 0.072747
vt 0.069195 0.189320
vt 0.117441 0.072906
vt 0.117441 0.189404
vt 0.165686 0.072896
vt 0.165686 0.189442
vt 0.213932 0.072887
vt 0.213932 0.189450
vt 0.262177 0.073038
vt 0.262177 0.189534
vt 0.310423 0.073042
vt 0.310423 0.189504
vt 0.358669 0.072852
vt 0.358669 0.189351
vt 0.406914 0.072612
vt 0.406914 0.189131
vt 0.455160 0.072374
vt 0.455160 0.188937
vt 0.503406 0.072264
vt 0.503406 0.188853
vt 0.551651 0.072375
vt 0.551651 0.188936
vt 0.599897 0.072612
vt 0.599897 0.189134
vt 0.648142 0.072853
vt 0.648142 0.189347
vt 0.696388 0.073041
vt 0.696388 0.189508
vt 0.744634 0.073039
vt 0.744634 0.189529
vt 0.069195 0.413102
vt 0.020949 0.413097
vt 0.937616 0.413112
vt 0.889370 0.413125
vt 0.841125 0.413162
vt 0.792879 0.413152
vt 0.744634 0.413186
vt 0.696388 0.413119
vt 0.648142 0.413038
vt 0.599897 0.412903
vt 0.551651 0.412808
vt 0.503406 0.412769
vt 0.455160 0.412803
vt 0.406914 0.412914
vt 0.358669 0.413022
vt 0.310423 0.413139
vt 0.262177 0.413163
vt 0.213932 0.413175
vt 0.165686 0.413142
vt 0.117441 0.413142
vt 0.020949 0.690923
vt 0.937616 0.690901
vt 0.889370 0.690892
vt 0.841125 0.690827
vt 0.792879 0.690891
vt 0.744634 0.690853
vt 0.696388 0.690903
vt 0.648142 0.690845
vt 0.599897 0.690846
vt 0.551651 0.690801
vt 0.503406 0.690803
vt 0.455160 0.690814
vt 0.406914 0.690820
vt 0.358669 0.690882
vt 0.310423 0.690857
vt 0.262177 0.690904
vt 0.213932 0.690840
vt 0.165686 0.690875
vt 0.117441 0.690855
vt 0.069195 0.690925
vt 0.020949 0.978544
vt 0.937616 0.978439
vt 0.889370 0.978316
vt 0.841125 0.978286
vt 0.792879 0.978306
vt 0.744633 0.978391
vt 0.696388 0.978427
vt 0.648142 0.978456
vt 0.599897 0.978444
vt 0.551651 0.978469
vt 0.503406 0.978468
vt 0.455160 0.978467
vt 0.406915 0.978449
vt 0.358669 0.978450
vt 0.310423 0.978436
vt 0.262178 0.978383
vt 0.213932 0.978315
vt 0.165686 0.978278
vt 0.117440 0.978323
vt 0.069195 0.978435
vt 0.937616 0.072748
vt 0.985862 0.072856
vt 0.985862 0.189317
vt 0.985862 0.413094
vt 0.985862 0.690931
vt 0.985861 0.978544
vn -0.000000 1.000000 0.000000
vn -0.000000 1.000000 0.000000
vn -0.000000 1.000000 0.000000
vn -0.000000 1.000000 0.000000
vn -0.000000 1.000000 0.000000
vn -0.000000 1.000000 0.000000
vn 0.000000 1.000000 0.000000
vn 0.000000 1.000000 0.000000
vn -0.000000 1.000000 -0.000000
vn -0.000000 1.000000 0.000000
vn -0.000000 1.000000 0.000000
vn -0.000000 1.000000 0.000000
vn 0.000000 1.000000 0.000000
vn 0.000000 1.000000 0.000000
vn 0.000000 1.000000 0.000000
vn 0.000000 1.000000 0.000000
vn 0.000000 1.000000 0.000000
vn 0.000000 1.000000 0.000000
vn 0.000000 1.000000 0.000000
vn 0.000000 1.000000 0.000000
vn -0.000000 1.000000 0.000000
vn -0.000000 1.000000 0.000000
vn -0.000000 1.000000 0.000000
vn -0.000000 1.000000 0.000000
vn -0.000000 1.000000 0.000000
vn -0.000000 1.000000 0.000000
vn 0.000000 1.000000 0.000000
vn 0.000000 1.000000 0.000000
vn 0.000000 1.000000 0.000000
vn 0.000000 1.000000 0.000000
vn 0.000000 1.000000 0.000000
vn 0.000000 1.000000 0.000000
vn 0.000000 1.000000 0.000000
vn 0.000000 1.000000 0.000000
vn 0.000000 1.000000 0.000000
vn 0.000000 1.000000 0.000000
vn 0.000000 1.000000 0.000000
vn 0.000000 1.000000 0.000000
vn -0.000000 1.000000 0.000000
vn -0.000000 1.000000 0.000000
vn -0.000000 1.000000 0.000000
vn -0.000000 1.000000 0.000000
vn 0.000000 1.000000 0.000000
vn 0.000000 1.000000 -0.000000
vn 0.000000 1.000000 -0.000000
vn 0.000000 1.000000 0.000000
vn -0.000000 1.000000 0.000000
vn 0.000000 1.000000 0.000000
vn 0.000000 1.000000 -0.000000
vn -0.000000 1.000000 -0.000000
vn -0.000000 1.000000 0.000000
vn 0.000000 1.000000 -0.000000
vn 0.000000 1.000000 -0.000000
vn -0.000000 1.000000 -0.000000
vn -0.000000 1.000000 -0.000000
vn -0.000000 1.000000 -0.000000
vn -0.000000 1.000000 -0.000000
vn -0.000000 1.000000 -0.000000
vn -0.000000 1.000000 -0.000000
vn -0.000000 1.000000 -0.000000
vn -0.000000 1.000000 -0.000000
vn 0.000000 1.000000 -0.000000
vn -0.000000 1.000000 -0.000000
vn 0.000000 1.000000 0.000000
vn 0.000000 1.000000 0.000000
vn 0.000000 1.000000 0.000000
vn 0.000000 1.000000 0.000000
vn -0.000000 1.000000 -0.000000
vn 0.000000 1.000000 -0.000000
vn -0.000000 1.000000 0.000000
vn 0.000000 1.000000 0.000000
vn 0.000000 1.000000 0.000000
vn -0.000000 1.000000 -0.000000
vn 0.000000 1.000000 -0.000000
vn -0.000000 1.000000 0.000000
vn -0.000000 1.000000 0.000000
vn -0.000000 1.000000 0.000000
vn -0.000000 1.000000 0.000000
vn 0.000000 1.000000 -0.000000
vn -0.000000 1.000000 -0.000000
vn 0.000000 1.000000 0.000000
vn -0.000000 1.000000 0.000000
vn -0.000000 1.000000 -0.000000
vn -0.000000 1.000000 -0.000000
vn 0.000000 1.000000 0.000000
vn 0.000000 1.000000 0.000000
vn 0.000000 1.000000 -0.000000
vn 0.000000 1.000000 0.000000
vn 0.000000 1.000000 0.000000
vn 0.000000 1.000000 0.000000
vn 0.000000 1.000000 0.000000
vn 0.000000 1.000000 0.000000
vn -0.000000 1.000000 0.000000
vn -0.000000 1.000000 0.000000
vn -0.000000 1.000000 0.000000
vn -0.000000 1.000000 0.000000
vn -0.000000 1.000000 0.000000
vn 0.000000 1.000000 0.000000
vn 0.000000 1.000000 0.000000
vn 0.000000 1.000000 0.000000
s 1
g pCylinder2
usemtl lambert8SG
f 1/1/1 2/2/2 45/3/3 46/4/4
f 2/2/2 3/5/5 44/6/6 45/3/3
f 3/5/5 4/100/7 43/7/8 44/6/6
f 4/100/7 5/101/9 42/102/10 43/7/8
f 42/9/10 5/8/9 6/10/11 41/11/12
f 6/10/11 7/12/13 60/13/14 41/11/12
f 7/12/13 8/14/15 59/15/16 60/13/14
f 8/14/15 9/16/17 58/17/18 59/15/16
f 9/16/17 10/18/19 57/19/20 58/17/18
f 10/18/19 11/20/21 56/21/22 57/19/20
f 11/20/21 12/22/23 55/23/24 56/21/22
f 12/22/23 13/24/25 54/25/26 55/23/24
f 13/24/25 14/26/27 53/27/28 54/25/26
f 14/26/27 15/28/29 52/29/30 53/27/28
f 15/28/29 16/30/31 51/31/32 52/29/30
f 16/30/31 17/32/33 50/33/34 51/31/32
f 17/32/33 18/34/35 49/35/36 50/33/34
f 18/34/35 19/36/37 48/37/38 49/35/36
f 19/36/37 20/38/39 47/39/40 48/37/38
f 20/38/39 1/1/1 46/4/4 47/39/40
f 80/40/41 61/41/42 42/9/10 41/11/12
f 43/7/8 42/102/10 61/103/42 62/42/43
f 44/6/6 43/7/8 62/42/43 63/43/44
f 45/3/3 44/6/6 63/43/44 64/44/45
f 46/4/4 45/3/3 64/44/45 65/45/46
f 47/39/40 46/4/4 65/45/46 66/46/47
f 48/37/38 47/39/40 66/46/47 67/47/48
f 49/35/36 48/37/38 67/47/48 68/48/49
f 50/33/34 49/35/36 68/48/49 69/49/50
f 51/31/32 50/33/34 69/49/50 70/50/51
f 52/29/30 51/31/32 70/50/51 71/51/52
f 53/27/28 52/29/30 71/51/52 72/52/53
f 54/25/26 53/27/28 72/52/53 73/53/54
f 55/23/24 54/25/26 73/53/54 74/54/55
f 56/21/22 55/23/24 74/54/55 75/55/56
f 57/19/20 56/21/22 75/55/56 76/56/57
f 58/17/18 57/19/20 76/56/57 77/57/58
f 59/15/16 58/17/18 77/57/58 78/58/59
f 60/13/14 59/15/16 78/58/59 79/59/60
f 41/11/12 60/13/14 79/59/60 80/40/41
f 62/42/43 61/103/42 81/104/61 82/61/62
f 63/43/44 62/42/43 82/61/62 83/62/63
f 64/44/45 63/43/44 83/62/63 84/63/64
f 65/45/46 64/44/45 84/63/64 85/64/65
f 66/46/47 65/45/46 85/64/65 86/65/66
f 67/47/48 66/46/47 86/65/66 87/66/67
f 68/48/49 67/47/48 87/66/67 88/67/68
f 69/49/50 68/48/49 88/67/68 89/68/69
f 70/50/51 69/49/50 89/68/69 90/69/70
f 71/51/52 70/50/51 90/69/70 91/70/71
f 72/52/53 71/51/52 91/70/71 92/71/72
f 73/53/54 72/52/53 92/71/72 93/72/73
f 74/54/55 73/53/54 93/72/73 94/73/74
f 75/55/56 74/54/55 94/73/74 95/74/75
f 76/56/57 75/55/56 95/74/75 96/75/76
f 77/57/58 76/56/57 96/75/76 97/76/77
f 78/58/59 77/57/58 97/76/77 98/77/78
f 79/59/60 78/58/59 98/77/78 99/78/79
f 80/40/41 79/59/60 99/78/79 100/79/80
f 100/79/80 81/60/61 61/41/42 80/40/41
f 82/61/62 81/104/61 25/105/81 24/81/82
f 83/62/63 82/61/62 24/81/82 23/82/83
f 84/63/64 83/62/63 23/82/83 22/83/84
f 85/64/65 84/63/64 22/83/84 21/84/85
f 86/65/66 85/64/65 21/84/85 40/85/86
f 87/66/67 86/65/66 40/85/86 39/86/87
f 88/67/68 87/66/67 39/86/87 38/87/88
f 89/68/69 88/67/68 38/87/88 37/88/89
f 90/69/70 89/68/69 37/88/89 36/89/90
f 91/70/71 90/69/70 36/89/90 35/90/91
f 92/71/72 91/70/71 35/90/91 34/91/92
f 93/72/73 92/71/72 34/91/92 33/92/93
f 94/73/74 93/72/73 33/92/93 32/93/94
f 95/74/75 94/73/74 32/93/94 31/94/95
f 96/75/76 95/74/75 31/94/95 30/95/96
f 97/76/77 96/75/76 30/95/96 29/96/97
f 98/77/78 97/76/77 29/96/97 28/97/98
f 99/78/79 98/77/78 28/97/98 27/98/99
f 100/79/80 99/78/79 27/98/99 26/99/100
f 25/80/81 81/60/61 100/79/80 26/99/100
