# This file uses centimeters as units for non-parametric coordinates.

mtllib water_Ripple.mtl
g default
v 3.864244 1.353110 1.365835
v 3.662414 1.353110 0.969721
v 3.348056 1.353110 0.655363
v 2.951942 1.353110 0.453533
v 2.512846 1.353110 0.383987
v 2.073751 1.353110 0.453533
v 1.677637 1.353110 0.655363
v 1.363280 1.353110 0.969721
v 1.161450 1.353110 1.365835
v 1.091904 1.353110 1.804930
v 1.161450 1.353110 2.244026
v 1.363280 1.353110 2.640139
v 1.677637 1.353110 2.954497
v 2.073751 1.353110 3.156327
v 2.512846 1.353110 3.225873
v 2.951942 1.353110 3.156327
v 3.348055 1.353110 2.954497
v 3.662413 1.353110 2.640139
v 3.864243 1.353110 2.244026
v 3.933789 1.353110 1.804930
v 3.272136 1.353110 1.558222
v 3.158736 1.353110 1.335664
v 2.982113 1.353110 1.159040
v 2.759554 1.353110 1.045641
v 2.512846 1.353110 1.006567
v 2.266139 1.353110 1.045641
v 2.043580 1.353110 1.159040
v 1.866957 1.353110 1.335664
v 1.753558 1.353110 1.558222
v 1.714483 1.353110 1.804930
v 1.753558 1.353110 2.051638
v 1.866957 1.353110 2.274197
v 2.043580 1.353110 2.450820
v 2.266139 1.353110 2.564219
v 2.512846 1.353110 2.603293
v 2.759554 1.353110 2.564219
v 2.982113 1.353110 2.450820
v 3.158736 1.353110 2.274197
v 3.272135 1.353110 2.051638
v 3.311210 1.353110 1.804930
v 2.724572 1.353110 1.736136
v 2.692951 1.353110 1.674076
v 2.643700 1.353110 1.624825
v 2.581640 1.353110 1.593204
v 2.512846 1.353110 1.582308
v 2.444052 1.353110 1.593204
v 2.381993 1.353110 1.624825
v 2.332742 1.353110 1.674076
v 2.301121 1.353110 1.736136
v 2.290225 1.353110 1.804930
v 2.301121 1.353110 1.873724
v 2.332742 1.353110 1.935784
v 2.381993 1.353110 1.985035
v 2.444052 1.353110 2.016656
v 2.512846 1.353110 2.027552
v 2.581640 1.353110 2.016656
v 2.643700 1.353110 1.985035
v 2.692951 1.353110 1.935784
v 2.724572 1.353110 1.873724
v 2.735468 1.353110 1.804930
v 2.673594 1.353110 1.310202
v 2.818605 1.353110 1.384089
v 2.933688 1.353110 1.499171
v 3.007575 1.353110 1.644183
v 3.033034 1.353110 1.804930
v 3.007575 1.353110 1.965677
v 2.933687 1.353110 2.110689
v 2.818605 1.353110 2.225771
v 2.673593 1.353110 2.299658
v 2.512846 1.353110 2.325118
v 2.352099 1.353110 2.299658
v 2.207088 1.353110 2.225771
v 2.092005 1.353110 2.110689
v 2.018118 1.353110 1.965677
v 1.992658 1.353110 1.804930
v 2.018118 1.353110 1.644183
v 2.092005 1.353110 1.499172
v 2.207088 1.353110 1.384089
v 2.352099 1.353110 1.310202
v 2.512846 1.353110 1.284742
v 2.512846 1.353110 0.598143
v 2.885764 1.353110 0.657208
v 3.222178 1.353110 0.828619
v 3.489158 1.353110 1.095599
v 3.660569 1.353110 1.432013
v 3.719633 1.353110 1.804930
v 3.660569 1.353110 2.177848
v 3.489157 1.353110 2.514262
v 3.222178 1.353110 2.781241
v 2.885764 1.353110 2.952652
v 2.512846 1.353110 3.011717
v 2.139929 1.353110 2.952652
v 1.803515 1.353110 2.781241
v 1.536536 1.353110 2.514262
v 1.365124 1.353110 2.177848
v 1.306060 1.353110 1.804930
v 1.365124 1.353110 1.432013
v 1.536536 1.353110 1.095599
v 1.803515 1.353110 0.828619
v 2.139929 1.353110 0.657208
vt 0.064193 0.719962
vt 0.017718 0.577004
vt 0.089237 0.565664
vt 0.128708 0.687077
vt 0.017694 0.426681
vt 0.089217 0.437997
vt 0.064123 0.283708
vt 0.128649 0.316573
vt 0.152461 0.162080
vt 0.203673 0.213276
vt 0.274061 0.073703
vt 0.306946 0.138218
vt 0.417019 0.027228
vt 0.428358 0.098748
vt 0.567342 0.027204
vt 0.556025 0.098727
vt 0.710315 0.073634
vt 0.677450 0.138159
vt 0.831942 0.161972
vt 0.780747 0.213183
vt 0.920319 0.283571
vt 0.855804 0.316456
vt 0.966795 0.426529
vt 0.895275 0.437869
vt 0.966819 0.576852
vt 0.895295 0.565536
vt 0.920389 0.719825
vt 0.855864 0.686960
vt 0.832051 0.841453
vt 0.780839 0.790257
vt 0.710452 0.929829
vt 0.677567 0.865314
vt 0.567494 0.976305
vt 0.556154 0.904785
vt 0.417171 0.976329
vt 0.428487 0.904806
vt 0.274198 0.929899
vt 0.307062 0.865374
vt 0.152570 0.841561
vt 0.203766 0.790349
vt 0.251747 0.624361
vt 0.225635 0.544039
vt 0.318534 0.529310
vt 0.335548 0.581645
vt 0.225621 0.459579
vt 0.318525 0.474279
vt 0.251708 0.379249
vt 0.335523 0.421938
vt 0.301341 0.310912
vt 0.367862 0.377412
vt 0.369662 0.261257
vt 0.412378 0.345058
vt 0.449984 0.235145
vt 0.464713 0.328044
vt 0.534443 0.235131
vt 0.519744 0.328036
vt 0.614773 0.261218
vt 0.572084 0.345033
vt 0.683111 0.310851
vt 0.616611 0.377372
vt 0.732766 0.379172
vt 0.648964 0.421888
vt 0.758878 0.459494
vt 0.665978 0.474223
vt 0.758891 0.543954
vt 0.665987 0.529254
vt 0.732805 0.624284
vt 0.648990 0.581595
vt 0.683172 0.692621
vt 0.616651 0.626121
vt 0.614850 0.742276
vt 0.572135 0.658475
vt 0.534529 0.768388
vt 0.519800 0.675489
vt 0.450069 0.768402
vt 0.464769 0.675497
vt 0.369739 0.742315
vt 0.412428 0.658500
vt 0.301402 0.692682
vt 0.367902 0.626161
vt 0.425180 0.467603
vt 0.417906 0.490003
vt 0.417909 0.513554
vt 0.425191 0.535952
vt 0.439037 0.555003
vt 0.458093 0.568843
vt 0.480493 0.576117
vt 0.504044 0.576113
vt 0.526441 0.568832
vt 0.545493 0.554986
vt 0.559333 0.535930
vt 0.566607 0.513530
vt 0.566603 0.489979
vt 0.559322 0.467581
vt 0.545476 0.448530
vt 0.526420 0.434690
vt 0.504020 0.427416
vt 0.480469 0.427420
vt 0.458071 0.434701
vt 0.439020 0.448547
vn 0.000000 1.000000 -0.000000
vn 0.000000 1.000000 -0.000000
vn 0.000000 1.000000 0.000000
vn 0.000000 1.000000 0.000000
vn 0.000000 1.000000 -0.000000
vn 0.000000 1.000000 0.000000
vn 0.000000 1.000000 -0.000000
vn 0.000000 1.000000 0.000000
vn 0.000000 1.000000 0.000000
vn 0.000000 1.000000 -0.000000
vn 0.000000 1.000000 -0.000000
vn 0.000000 1.000000 -0.000000
vn 0.000000 1.000000 -0.000000
vn 0.000000 1.000000 -0.000000
vn 0.000000 1.000000 0.000000
vn 0.000000 1.000000 0.000000
vn 0.000000 1.000000 0.000000
vn 0.000000 1.000000 -0.000000
vn 0.000000 1.000000 0.000000
vn 0.000000 1.000000 -0.000000
vn 0.000000 1.000000 0.000000
vn 0.000000 1.000000 -0.000000
vn 0.000000 1.000000 0.000000
vn 0.000000 1.000000 -0.000000
vn 0.000000 1.000000 0.000000
vn 0.000000 1.000000 -0.000000
vn 0.000000 1.000000 0.000000
vn 0.000000 1.000000 -0.000000
vn 0.000000 1.000000 -0.000000
vn 0.000000 1.000000 0.000000
vn 0.000000 1.000000 0.000000
vn 0.000000 1.000000 0.000000
vn 0.000000 1.000000 0.000000
vn 0.000000 1.000000 0.000000
vn 0.000000 1.000000 0.000000
vn 0.000000 1.000000 -0.000000
vn 0.000000 1.000000 0.000000
vn 0.000000 1.000000 0.000000
vn 0.000000 1.000000 0.000000
vn 0.000000 1.000000 0.000000
vn 0.000000 1.000000 0.000000
vn 0.000000 1.000000 0.000000
vn 0.000000 1.000000 0.000000
vn 0.000000 1.000000 0.000000
vn 0.000000 1.000000 0.000000
vn 0.000000 1.000000 0.000000
vn 0.000000 1.000000 0.000000
vn 0.000000 1.000000 0.000000
vn 0.000000 1.000000 -0.000000
vn 0.000000 1.000000 0.000000
vn 0.000000 1.000000 0.000000
vn 0.000000 1.000000 0.000000
vn 0.000000 1.000000 0.000000
vn 0.000000 1.000000 0.000000
vn 0.000000 1.000000 0.000000
vn 0.000000 1.000000 0.000000
vn 0.000000 1.000000 -0.000000
vn 0.000000 1.000000 0.000000
vn 0.000000 1.000000 -0.000000
vn 0.000000 1.000000 0.000000
vn 0.000000 1.000000 -0.000000
vn 0.000000 1.000000 0.000000
vn 0.000000 1.000000 -0.000000
vn 0.000000 1.000000 -0.000000
vn 0.000000 1.000000 -0.000000
vn 0.000000 1.000000 -0.000000
vn 0.000000 1.000000 -0.000000
vn 0.000000 1.000000 -0.000000
vn 0.000000 1.000000 0.000000
vn 0.000000 1.000000 -0.000000
vn 0.000000 1.000000 -0.000000
vn 0.000000 1.000000 -0.000000
vn 0.000000 1.000000 -0.000000
vn 0.000000 1.000000 -0.000000
vn 0.000000 1.000000 -0.000000
vn 0.000000 1.000000 -0.000000
vn 0.000000 1.000000 0.000000
vn 0.000000 1.000000 0.000000
vn 0.000000 1.000000 0.000000
vn 0.000000 1.000000 0.000000
vn 0.000000 1.000000 0.000000
vn 0.000000 1.000000 0.000000
vn 0.000000 1.000000 0.000000
vn 0.000000 1.000000 0.000000
vn 0.000000 1.000000 0.000000
vn 0.000000 1.000000 0.000000
vn 0.000000 1.000000 -0.000000
vn 0.000000 1.000000 -0.000000
vn 0.000000 1.000000 0.000000
vn 0.000000 1.000000 0.000000
vn 0.000000 1.000000 -0.000000
vn 0.000000 1.000000 -0.000000
vn 0.000000 1.000000 0.000000
vn 0.000000 1.000000 0.000000
vn 0.000000 1.000000 0.000000
vn 0.000000 1.000000 0.000000
vn 0.000000 1.000000 0.000000
vn 0.000000 1.000000 0.000000
vn 0.000000 1.000000 0.000000
vn 0.000000 1.000000 0.000000
s 1
g pCylinder2
usemtl lambert8SG
f 1/1/1 2/2/2 84/3/3 85/4/4
f 2/2/2 3/5/5 83/6/6 84/3/3
f 3/5/5 4/7/7 82/8/8 83/6/6
f 4/7/7 5/9/9 81/10/10 82/8/8
f 5/9/9 6/11/11 100/12/12 81/10/10
f 6/11/11 7/13/13 99/14/14 100/12/12
f 7/13/13 8/15/15 98/16/16 99/14/14
f 8/15/15 9/17/17 97/18/18 98/16/16
f 9/17/17 10/19/19 96/20/20 97/18/18
f 10/19/19 11/21/21 95/22/22 96/20/20
f 11/21/21 12/23/23 94/24/24 95/22/22
f 12/23/23 13/25/25 93/26/26 94/24/24
f 13/25/25 14/27/27 92/28/28 93/26/26
f 14/27/27 15/29/29 91/30/30 92/28/28
f 15/29/29 16/31/31 90/32/32 91/30/30
f 16/31/31 17/33/33 89/34/34 90/32/32
f 17/33/33 18/35/35 88/36/36 89/34/34
f 18/35/35 19/37/37 87/38/38 88/36/36
f 19/37/37 20/39/39 86/40/40 87/38/38
f 20/39/39 1/1/1 85/4/4 86/40/40
f 21/41/41 22/42/42 63/43/43 64/44/44
f 22/42/42 23/45/45 62/46/46 63/43/43
f 23/45/45 24/47/47 61/48/48 62/46/46
f 24/47/47 25/49/49 80/50/50 61/48/48
f 25/49/49 26/51/51 79/52/52 80/50/50
f 26/51/51 27/53/53 78/54/54 79/52/52
f 27/53/53 28/55/55 77/56/56 78/54/54
f 28/55/55 29/57/57 76/58/58 77/56/56
f 29/57/57 30/59/59 75/60/60 76/58/58
f 30/59/59 31/61/61 74/62/62 75/60/60
f 31/61/61 32/63/63 73/64/64 74/62/62
f 32/63/63 33/65/65 72/66/66 73/64/64
f 33/65/65 34/67/67 71/68/68 72/66/66
f 34/67/67 35/69/69 70/70/70 71/68/68
f 35/69/69 36/71/71 69/72/72 70/70/70
f 36/71/71 37/73/73 68/74/74 69/72/72
f 37/73/73 38/75/75 67/76/76 68/74/74
f 38/75/75 39/77/77 66/78/78 67/76/76
f 39/77/77 40/79/79 65/80/80 66/78/78
f 40/79/79 21/41/41 64/44/44 65/80/80
f 62/46/46 61/48/48 44/81/81 43/82/82
f 63/43/43 62/46/46 43/82/82 42/83/83
f 64/44/44 63/43/43 42/83/83 41/84/84
f 65/80/80 64/44/44 41/84/84 60/85/85
f 66/78/78 65/80/80 60/85/85 59/86/86
f 67/76/76 66/78/78 59/86/86 58/87/87
f 68/74/74 67/76/76 58/87/87 57/88/88
f 69/72/72 68/74/74 57/88/88 56/89/89
f 70/70/70 69/72/72 56/89/89 55/90/90
f 71/68/68 70/70/70 55/90/90 54/91/91
f 72/66/66 71/68/68 54/91/91 53/92/92
f 73/64/64 72/66/66 53/92/92 52/93/93
f 74/62/62 73/64/64 52/93/93 51/94/94
f 75/60/60 74/62/62 51/94/94 50/95/95
f 76/58/58 75/60/60 50/95/95 49/96/96
f 77/56/56 76/58/58 49/96/96 48/97/97
f 78/54/54 77/56/56 48/97/97 47/98/98
f 79/52/52 78/54/54 47/98/98 46/99/99
f 80/50/50 79/52/52 46/99/99 45/100/100
f 61/48/48 80/50/50 45/100/100 44/81/81
f 82/8/8 81/10/10 25/49/49 24/47/47
f 83/6/6 82/8/8 24/47/47 23/45/45
f 84/3/3 83/6/6 23/45/45 22/42/42
f 85/4/4 84/3/3 22/42/42 21/41/41
f 86/40/40 85/4/4 21/41/41 40/79/79
f 87/38/38 86/40/40 40/79/79 39/77/77
f 88/36/36 87/38/38 39/77/77 38/75/75
f 89/34/34 88/36/36 38/75/75 37/73/73
f 90/32/32 89/34/34 37/73/73 36/71/71
f 91/30/30 90/32/32 36/71/71 35/69/69
f 92/28/28 91/30/30 35/69/69 34/67/67
f 93/26/26 92/28/28 34/67/67 33/65/65
f 94/24/24 93/26/26 33/65/65 32/63/63
f 95/22/22 94/24/24 32/63/63 31/61/61
f 96/20/20 95/22/22 31/61/61 30/59/59
f 97/18/18 96/20/20 30/59/59 29/57/57
f 98/16/16 97/18/18 29/57/57 28/55/55
f 99/14/14 98/16/16 28/55/55 27/53/53
f 100/12/12 99/14/14 27/53/53 26/51/51
f 81/10/10 100/12/12 26/51/51 25/49/49
