# This file uses centimeters as units for non-parametric coordinates.

mtllib water_Ripple_v02.mtl
g default
v 3.864244 1.343680 1.365835
v 3.662414 1.343680 0.969721
v 3.348056 1.343680 0.655363
v 2.951942 1.343680 0.453533
v 2.512846 1.343680 0.383987
v 2.073751 1.343680 0.453533
v 1.677637 1.343680 0.655363
v 1.363280 1.343680 0.969721
v 1.161450 1.343680 1.365835
v 1.091904 1.343680 1.804930
v 1.161450 1.343680 2.244026
v 1.363280 1.343680 2.640139
v 1.677637 1.343680 2.954497
v 2.073751 1.343680 3.156327
v 2.512846 1.343680 3.225873
v 2.951942 1.343679 3.156327
v 3.348055 1.343680 2.954497
v 3.662413 1.343680 2.640139
v 3.864243 1.343680 2.244026
v 3.933789 1.343680 1.804930
v 2.724572 1.343680 1.736136
v 2.692951 1.343680 1.674076
v 2.643700 1.343680 1.624825
v 2.581640 1.343680 1.593204
v 2.512846 1.343680 1.582308
v 2.444052 1.343680 1.593204
v 2.381993 1.343680 1.624825
v 2.332742 1.343680 1.674076
v 2.301121 1.343680 1.736136
v 2.290225 1.343680 1.804930
v 2.301121 1.343680 1.873724
v 2.332742 1.343680 1.935784
v 2.381993 1.343680 1.985035
v 2.444052 1.343680 2.016656
v 2.512846 1.343680 2.027552
v 2.581640 1.343680 2.016656
v 2.643700 1.343680 1.985035
v 2.692951 1.343680 1.935784
v 2.724572 1.343680 1.873724
v 2.735468 1.343680 1.804930
v 2.165493 1.343680 0.735887
v 2.512846 1.343680 0.680872
v 2.860200 1.343680 0.735887
v 3.173552 1.343680 0.895548
v 3.422229 1.343680 1.144225
v 3.581890 1.343680 1.457577
v 3.636904 1.343680 1.804930
v 3.581889 1.343680 2.152283
v 3.422228 1.343680 2.465635
v 3.173551 1.343680 2.714312
v 2.860199 1.343680 2.873973
v 2.512846 1.343680 2.928989
v 2.165493 1.343680 2.873973
v 1.852142 1.343680 2.714312
v 1.603464 1.343680 2.465635
v 1.443804 1.343680 2.152283
v 1.388788 1.343680 1.804930
v 1.443804 1.343680 1.457577
v 1.603464 1.343680 1.144225
v 1.852142 1.343679 0.895548
v 2.512846 1.343680 1.092271
v 2.733070 1.343680 1.127152
v 2.931737 1.343680 1.228377
v 3.089400 1.343680 1.386040
v 3.190625 1.343680 1.584707
v 3.225505 1.343680 1.804930
v 3.190625 1.343680 2.025154
v 3.089400 1.343680 2.223820
v 2.931736 1.343680 2.381483
v 2.733070 1.343680 2.482709
v 2.512846 1.343680 2.517589
v 2.292623 1.343680 2.482709
v 2.093956 1.343680 2.381483
v 1.936294 1.343680 2.223820
v 1.835068 1.343680 2.025154
v 1.800188 1.343680 1.804930
v 1.835068 1.343680 1.584707
v 1.936294 1.343680 1.386040
v 2.093956 1.343680 1.228377
v 2.292623 1.343680 1.127152
v 2.512846 1.343680 1.402399
v 2.637235 1.343680 1.422101
v 2.749448 1.343680 1.479276
v 2.838501 1.343680 1.568328
v 2.895676 1.343680 1.680541
v 2.915378 1.343680 1.804930
v 2.895676 1.343680 1.929319
v 2.838501 1.343680 2.041532
v 2.749448 1.343680 2.130585
v 2.637235 1.343680 2.187760
v 2.512846 1.343680 2.207461
v 2.388457 1.343680 2.187760
v 2.276245 1.343680 2.130585
v 2.187192 1.343680 2.041532
v 2.130017 1.343680 1.929319
v 2.110315 1.343680 1.804930
v 2.130017 1.343680 1.680541
v 2.187192 1.343680 1.568328
v 2.276245 1.343680 1.479276
v 2.388457 1.343680 1.422101
vt 0.830165 0.290208
vt 0.878410 0.290212
vt 0.878410 0.325746
vt 0.830165 0.325752
vt 0.926656 0.290214
vt 0.926656 0.325738
vt 0.974901 0.325710
vt 0.058235 0.290199
vt 0.058235 0.325709
vt 0.106480 0.290166
vt 0.106480 0.325711
vt 0.154726 0.290214
vt 0.154726 0.325736
vt 0.202972 0.290211
vt 0.202972 0.325748
vt 0.251217 0.290208
vt 0.251217 0.325750
vt 0.299463 0.290255
vt 0.299463 0.325776
vt 0.347708 0.290256
vt 0.347709 0.325767
vt 0.395954 0.290198
vt 0.395954 0.325720
vt 0.444200 0.290125
vt 0.444200 0.325653
vt 0.492445 0.290052
vt 0.492445 0.325594
vt 0.540691 0.290019
vt 0.540691 0.325568
vt 0.588937 0.290052
vt 0.588937 0.325594
vt 0.637182 0.290125
vt 0.637182 0.325654
vt 0.685428 0.290198
vt 0.685428 0.325719
vt 0.733673 0.290255
vt 0.733673 0.325768
vt 0.781919 0.290255
vt 0.781919 0.325774
vt 0.106480 0.393945
vt 0.058235 0.393944
vt 0.974901 0.393948
vt 0.926656 0.393953
vt 0.878410 0.393964
vt 0.830164 0.393961
vt 0.781919 0.393971
vt 0.733673 0.393951
vt 0.685428 0.393926
vt 0.637182 0.393885
vt 0.588937 0.393856
vt 0.540691 0.393844
vt 0.492445 0.393854
vt 0.444200 0.393888
vt 0.395954 0.393921
vt 0.347709 0.393957
vt 0.299463 0.393964
vt 0.251217 0.393968
vt 0.202972 0.393958
vt 0.154726 0.393958
vt 0.058235 0.478658
vt 0.974901 0.478651
vt 0.926656 0.478648
vt 0.878410 0.478628
vt 0.830165 0.478648
vt 0.781919 0.478636
vt 0.733673 0.478651
vt 0.685428 0.478634
vt 0.637182 0.478634
vt 0.588937 0.478620
vt 0.540691 0.478621
vt 0.492445 0.478624
vt 0.444200 0.478626
vt 0.395954 0.478645
vt 0.347709 0.478637
vt 0.299463 0.478652
vt 0.251217 0.478632
vt 0.202972 0.478643
vt 0.154726 0.478637
vt 0.106480 0.478658
vt 0.058235 0.566358
vt 0.974901 0.566326
vt 0.926656 0.566288
vt 0.878410 0.566279
vt 0.830164 0.566285
vt 0.781919 0.566311
vt 0.733673 0.566322
vt 0.685428 0.566331
vt 0.637182 0.566327
vt 0.588937 0.566335
vt 0.540691 0.566334
vt 0.492445 0.566334
vt 0.444200 0.566329
vt 0.395954 0.566329
vt 0.347709 0.566325
vt 0.299463 0.566308
vt 0.251217 0.566288
vt 0.202972 0.566276
vt 0.154726 0.566290
vt 0.106480 0.566324
vt 0.974901 0.290166
vt 1.023147 0.290199
vt 1.023147 0.325710
vt 1.023147 0.393943
vt 1.023147 0.478660
vt 1.023147 0.566357
vn -0.000000 1.000000 0.000000
vn -0.000000 1.000000 0.000000
vn -0.000000 1.000000 0.000000
vn -0.000000 1.000000 0.000000
vn -0.000000 1.000000 0.000000
vn -0.000000 1.000000 0.000000
vn 0.000000 1.000000 0.000000
vn 0.000000 1.000000 0.000000
vn -0.000000 1.000000 -0.000000
vn -0.000000 1.000000 0.000000
vn -0.000000 1.000000 0.000000
vn -0.000000 1.000000 0.000000
vn 0.000000 1.000000 0.000000
vn 0.000000 1.000000 0.000000
vn 0.000000 1.000000 0.000000
vn 0.000000 1.000000 0.000000
vn 0.000000 1.000000 0.000000
vn 0.000000 1.000000 0.000000
vn 0.000000 1.000000 0.000000
vn 0.000000 1.000000 0.000000
vn -0.000000 1.000000 0.000000
vn -0.000000 1.000000 0.000000
vn -0.000000 1.000000 0.000000
vn -0.000000 1.000000 0.000000
vn -0.000000 1.000000 0.000000
vn -0.000000 1.000000 0.000000
vn 0.000000 1.000000 0.000000
vn 0.000000 1.000000 0.000000
vn 0.000000 1.000000 0.000000
vn 0.000000 1.000000 0.000000
vn 0.000000 1.000000 0.000000
vn 0.000000 1.000000 0.000000
vn 0.000000 1.000000 0.000000
vn 0.000000 1.000000 0.000000
vn 0.000000 1.000000 0.000000
vn 0.000000 1.000000 0.000000
vn 0.000000 1.000000 0.000000
vn 0.000000 1.000000 0.000000
vn -0.000000 1.000000 0.000000
vn -0.000000 1.000000 0.000000
vn -0.000000 1.000000 0.000000
vn -0.000000 1.000000 0.000000
vn 0.000000 1.000000 0.000000
vn 0.000000 1.000000 -0.000000
vn 0.000000 1.000000 -0.000000
vn 0.000000 1.000000 0.000000
vn -0.000000 1.000000 0.000000
vn 0.000000 1.000000 0.000000
vn 0.000000 1.000000 -0.000000
vn -0.000000 1.000000 -0.000000
vn -0.000000 1.000000 0.000000
vn 0.000000 1.000000 -0.000000
vn 0.000000 1.000000 -0.000000
vn -0.000000 1.000000 -0.000000
vn -0.000000 1.000000 -0.000000
vn -0.000000 1.000000 -0.000000
vn -0.000000 1.000000 -0.000000
vn -0.000000 1.000000 -0.000000
vn -0.000000 1.000000 -0.000000
vn -0.000000 1.000000 -0.000000
vn -0.000000 1.000000 -0.000000
vn 0.000000 1.000000 -0.000000
vn -0.000000 1.000000 -0.000000
vn 0.000000 1.000000 0.000000
vn 0.000000 1.000000 0.000000
vn 0.000000 1.000000 0.000000
vn 0.000000 1.000000 0.000000
vn -0.000000 1.000000 -0.000000
vn 0.000000 1.000000 -0.000000
vn -0.000000 1.000000 0.000000
vn 0.000000 1.000000 0.000000
vn 0.000000 1.000000 0.000000
vn -0.000000 1.000000 -0.000000
vn 0.000000 1.000000 -0.000000
vn -0.000000 1.000000 0.000000
vn -0.000000 1.000000 0.000000
vn -0.000000 1.000000 0.000000
vn -0.000000 1.000000 0.000000
vn 0.000000 1.000000 -0.000000
vn -0.000000 1.000000 -0.000000
vn 0.000000 1.000000 0.000000
vn -0.000000 1.000000 0.000000
vn -0.000000 1.000000 -0.000000
vn -0.000000 1.000000 -0.000000
vn 0.000000 1.000000 0.000000
vn 0.000000 1.000000 0.000000
vn 0.000000 1.000000 -0.000000
vn 0.000000 1.000000 0.000000
vn 0.000000 1.000000 0.000000
vn 0.000000 1.000000 0.000000
vn 0.000000 1.000000 0.000000
vn 0.000000 1.000000 0.000000
vn -0.000000 1.000000 0.000000
vn -0.000000 1.000000 0.000000
vn -0.000000 1.000000 0.000000
vn -0.000000 1.000000 0.000000
vn -0.000000 1.000000 0.000000
vn 0.000000 1.000000 0.000000
vn 0.000000 1.000000 0.000000
vn 0.000000 1.000000 0.000000
s 1
g pCylinder2
usemtl lambert8SG
f 1/1/1 2/2/2 45/3/3 46/4/4
f 2/2/2 3/5/5 44/6/6 45/3/3
f 3/5/5 4/100/7 43/7/8 44/6/6
f 4/100/7 5/101/9 42/102/10 43/7/8
f 42/9/10 5/8/9 6/10/11 41/11/12
f 6/10/11 7/12/13 60/13/14 41/11/12
f 7/12/13 8/14/15 59/15/16 60/13/14
f 8/14/15 9/16/17 58/17/18 59/15/16
f 9/16/17 10/18/19 57/19/20 58/17/18
f 10/18/19 11/20/21 56/21/22 57/19/20
f 11/20/21 12/22/23 55/23/24 56/21/22
f 12/22/23 13/24/25 54/25/26 55/23/24
f 13/24/25 14/26/27 53/27/28 54/25/26
f 14/26/27 15/28/29 52/29/30 53/27/28
f 15/28/29 16/30/31 51/31/32 52/29/30
f 16/30/31 17/32/33 50/33/34 51/31/32
f 17/32/33 18/34/35 49/35/36 50/33/34
f 18/34/35 19/36/37 48/37/38 49/35/36
f 19/36/37 20/38/39 47/39/40 48/37/38
f 20/38/39 1/1/1 46/4/4 47/39/40
f 80/40/41 61/41/42 42/9/10 41/11/12
f 43/7/8 42/102/10 61/103/42 62/42/43
f 44/6/6 43/7/8 62/42/43 63/43/44
f 45/3/3 44/6/6 63/43/44 64/44/45
f 46/4/4 45/3/3 64/44/45 65/45/46
f 47/39/40 46/4/4 65/45/46 66/46/47
f 48/37/38 47/39/40 66/46/47 67/47/48
f 49/35/36 48/37/38 67/47/48 68/48/49
f 50/33/34 49/35/36 68/48/49 69/49/50
f 51/31/32 50/33/34 69/49/50 70/50/51
f 52/29/30 51/31/32 70/50/51 71/51/52
f 53/27/28 52/29/30 71/51/52 72/52/53
f 54/25/26 53/27/28 72/52/53 73/53/54
f 55/23/24 54/25/26 73/53/54 74/54/55
f 56/21/22 55/23/24 74/54/55 75/55/56
f 57/19/20 56/21/22 75/55/56 76/56/57
f 58/17/18 57/19/20 76/56/57 77/57/58
f 59/15/16 58/17/18 77/57/58 78/58/59
f 60/13/14 59/15/16 78/58/59 79/59/60
f 41/11/12 60/13/14 79/59/60 80/40/41
f 62/42/43 61/103/42 81/104/61 82/61/62
f 63/43/44 62/42/43 82/61/62 83/62/63
f 64/44/45 63/43/44 83/62/63 84/63/64
f 65/45/46 64/44/45 84/63/64 85/64/65
f 66/46/47 65/45/46 85/64/65 86/65/66
f 67/47/48 66/46/47 86/65/66 87/66/67
f 68/48/49 67/47/48 87/66/67 88/67/68
f 69/49/50 68/48/49 88/67/68 89/68/69
f 70/50/51 69/49/50 89/68/69 90/69/70
f 71/51/52 70/50/51 90/69/70 91/70/71
f 72/52/53 71/51/52 91/70/71 92/71/72
f 73/53/54 72/52/53 92/71/72 93/72/73
f 74/54/55 73/53/54 93/72/73 94/73/74
f 75/55/56 74/54/55 94/73/74 95/74/75
f 76/56/57 75/55/56 95/74/75 96/75/76
f 77/57/58 76/56/57 96/75/76 97/76/77
f 78/58/59 77/57/58 97/76/77 98/77/78
f 79/59/60 78/58/59 98/77/78 99/78/79
f 80/40/41 79/59/60 99/78/79 100/79/80
f 100/79/80 81/60/61 61/41/42 80/40/41
f 82/61/62 81/104/61 25/105/81 24/81/82
f 83/62/63 82/61/62 24/81/82 23/82/83
f 84/63/64 83/62/63 23/82/83 22/83/84
f 85/64/65 84/63/64 22/83/84 21/84/85
f 86/65/66 85/64/65 21/84/85 40/85/86
f 87/66/67 86/65/66 40/85/86 39/86/87
f 88/67/68 87/66/67 39/86/87 38/87/88
f 89/68/69 88/67/68 38/87/88 37/88/89
f 90/69/70 89/68/69 37/88/89 36/89/90
f 91/70/71 90/69/70 36/89/90 35/90/91
f 92/71/72 91/70/71 35/90/91 34/91/92
f 93/72/73 92/71/72 34/91/92 33/92/93
f 94/73/74 93/72/73 33/92/93 32/93/94
f 95/74/75 94/73/74 32/93/94 31/94/95
f 96/75/76 95/74/75 31/94/95 30/95/96
f 97/76/77 96/75/76 30/95/96 29/96/97
f 98/77/78 97/76/77 29/96/97 28/97/98
f 99/78/79 98/77/78 28/97/98 27/98/99
f 100/79/80 99/78/79 27/98/99 26/99/100
f 25/80/81 81/60/61 100/79/80 26/99/100
