# This file uses centimeters as units for non-parametric coordinates.

mtllib space Cap test.mtl
g default
v 2.519764 0.936743 -1.767063
v 3.966978 1.347924 -0.297780
v 1.966977 1.922078 0.006587
v 0.730909 0.418924 -0.790255
v 1.966977 -1.084229 -1.587096
v 3.966977 -0.510076 -1.282730
v 4.308618 -0.418924 0.790255
v 3.072550 1.084229 1.587096
v 1.072550 0.510076 1.282730
v 1.072551 -1.347925 0.297780
v 2.519764 -0.936743 1.767063
v 2.194844 1.680373 -1.034782
v 3.045495 1.922059 -0.171159
v 3.370415 1.342894 -1.213685
v 2.894949 1.764601 -0.863376
v 1.468302 0.796841 -1.503154
v 1.143382 1.376006 -0.460629
v 1.537517 1.374914 -1.069954
v 2.194844 -0.086690 -1.971526
v 1.143382 -0.391057 -1.397372
v 1.537517 0.113860 -1.738455
v 3.370415 0.250789 -1.792624
v 3.045495 -0.937109 -1.686841
v 2.894949 -0.275827 -1.945034
v 4.221066 0.492475 -0.929000
v 3.733888 0.744387 -1.404205
v 2.519764 1.767063 0.936743
v 3.695335 1.429584 0.757841
v 3.126826 1.826467 0.543592
v 0.617651 0.546052 0.289469
v 1.344194 1.429584 0.757841
v 0.930455 1.195940 0.209341
v 1.344194 -1.429584 -0.757841
v 0.617651 -0.546053 -0.289470
v 0.930455 -0.844489 -0.872317
v 4.421877 0.546053 0.289470
v 4.421877 -0.546053 -0.289470
v 4.484258 0.175726 -0.331488
v 3.896146 0.391057 1.397372
v 4.109073 0.844488 0.872317
v 1.994033 0.937109 1.686841
v 1.912702 1.475015 1.206567
v 0.818462 -0.492475 0.929000
v 0.555270 -0.175726 0.331488
v 2.844684 0.086690 1.971526
v 3.571226 -0.796841 1.503154
v 3.502011 -0.113860 1.738455
v 1.669113 -0.250789 1.792623
v 2.144579 0.275827 1.945034
v 1.669113 -1.342894 1.213684
v 1.305640 -0.744387 1.404205
v 2.926129 1.167575 -1.572144
v 2.364546 1.328792 -1.486680
v 2.533206 1.750061 -0.968041
v 3.151240 1.572638 -1.062096
v 2.745187 1.485187 -1.320381
v 2.054111 1.882140 -0.490628
v 2.460476 1.997596 -0.078066
v 2.980420 1.877124 -0.514008
v 2.494413 1.932189 -0.515755
v 3.583643 1.675161 -0.248993
v 3.738861 1.398487 -0.747019
v 3.401723 1.671721 -0.653833
v 2.017469 0.906719 -1.710427
v 1.484573 1.094177 -1.315734
v 1.866539 1.558677 -1.069497
v 1.929599 1.251050 -1.444499
v 1.012878 0.615921 -1.161868
v 0.857660 0.892595 -0.663841
v 1.313753 1.398662 -0.767646
v 1.118076 1.016139 -1.001365
v 1.551815 1.736741 -0.216349
v 1.678825 1.698052 -0.639874
v 2.364546 0.484646 -1.934173
v 1.866539 0.010344 -1.890288
v 1.484573 0.474844 -1.644051
v 1.929599 0.493369 -1.846156
v 2.054110 -0.650298 -1.833106
v 1.551815 -0.795697 -1.558827
v 1.313753 -0.149671 -1.588438
v 1.678825 -0.423455 -1.764513
v 0.857660 0.048449 -1.111334
v 1.118076 0.258458 -1.403022
v 2.926129 0.645864 -1.848710
v 3.151240 -0.003618 -1.897689
v 2.533206 -0.181041 -1.991744
v 2.745187 0.259233 -1.970275
v 3.738861 -0.166645 -1.576716
v 3.583643 -0.734118 -1.526183
v 2.980419 -0.628133 -1.842076
v 3.401723 -0.397124 -1.750555
v 2.460476 -1.056552 -1.697110
v 2.494413 -0.657592 -1.888632
v 3.563262 1.071587 -1.327709
v 3.563262 0.497433 -1.632076
v 3.249248 0.872210 -1.645328
v 4.145226 0.992233 -0.611022
v 4.010476 0.624495 -1.178042
v 3.905784 1.058744 -0.978780
v 4.145226 -0.051189 -1.164153
v 3.905784 0.215853 -1.425607
v 3.894078 1.439900 0.194801
v 3.094300 1.907507 0.176987
v 3.435940 1.648598 0.665391
v 3.541042 1.708892 0.191518
v 2.209328 1.923553 0.451192
v 2.817907 1.826021 0.759446
v 2.633732 1.969360 0.329595
v 2.830200 1.453031 1.338779
v 3.391783 1.291814 1.253316
v 3.135281 1.589266 1.046601
v 1.647745 1.762335 0.365728
v 1.015610 1.310764 -0.139354
v 1.121183 1.338931 0.501233
v 1.314083 1.590519 0.128767
v 0.606512 0.496116 -0.305511
v 0.739217 0.874431 0.254995
v 0.753334 0.908606 -0.232724
v 0.798372 0.547305 0.858642
v 1.145450 0.969378 1.082389
v 0.908321 0.949957 0.707696
v 0.606513 -0.025595 -0.582077
v 1.015610 -0.620339 -1.163057
v 0.739217 -0.701825 -0.580598
v 0.753334 -0.317348 -0.882619
v 1.647745 -1.291814 -1.253316
v 1.121183 -1.166325 -0.826836
v 1.314083 -0.999262 -1.244110
v 1.145450 -1.439900 -0.194801
v 0.798372 -1.017827 0.028945
v 0.908321 -1.118888 -0.389026
v 4.241156 -0.547305 -0.858642
v 4.379001 0.345212 -0.651206
v 4.484573 -0.200774 -0.314985
v 4.356630 -0.125817 -0.781085
v 4.241156 1.017827 -0.028945
v 4.484573 0.373380 -0.010618
v 4.356630 0.717074 -0.334258
v 4.433016 0.025595 0.582077
v 4.433016 -0.496116 0.305511
v 4.511617 -0.084465 0.159335
v 3.918345 1.166325 0.826836
v 4.300311 0.701825 0.580598
v 4.131207 1.118888 0.389026
v 3.487713 0.795697 1.558827
v 4.023918 0.620339 1.163057
v 3.725446 0.999262 1.244110
v 4.181868 -0.048449 1.111334
v 4.286194 0.317348 0.882618
v 1.603588 1.475992 0.990994
v 2.221622 1.653415 1.085049
v 1.904248 1.758196 0.727932
v 1.455885 0.734118 1.526183
v 1.945228 1.217082 1.479398
v 1.498486 1.117634 1.306861
v 2.579052 1.056552 1.697110
v 2.405796 1.378102 1.444938
v 0.554955 -0.373380 0.010618
v 0.554955 0.200773 0.314984
v 0.527911 0.084465 -0.159335
v 0.894302 -0.992233 0.611022
v 0.660528 -0.345213 0.651205
v 0.682898 -0.717075 0.334258
v 0.894302 0.051189 1.164153
v 0.682898 0.125817 0.781085
v 4.026650 -0.615921 1.161867
v 3.725775 0.149671 1.588438
v 3.554955 -0.474844 1.644051
v 3.921452 -0.258458 1.403022
v 2.985417 0.650298 1.833107
v 3.172989 -0.010344 1.890289
v 3.360703 0.423455 1.764513
v 2.674982 -0.484646 1.934173
v 3.022059 -0.906719 1.710427
v 3.109929 -0.493369 1.846156
v 2.059109 0.628133 1.842076
v 2.506322 0.181041 1.991744
v 2.545115 0.657592 1.888632
v 1.300668 0.166645 1.576716
v 1.888288 0.003618 1.897690
v 1.637805 0.397124 1.750555
v 2.113399 -0.645864 1.848710
v 2.294341 -0.259233 1.970275
v 1.029052 -0.624496 1.178042
v 1.476266 -0.497434 1.632076
v 1.133744 -0.215853 1.425607
v 1.300668 -1.398488 0.747019
v 1.476266 -1.071587 1.327709
v 1.133744 -1.058744 0.978780
v 2.113399 -1.167575 1.572144
v 1.790280 -0.872210 1.645328
vt 0.570634 0.678793
vt 0.620954 0.647615
vt 0.653529 0.682843
vt 0.583609 0.715757
vt 0.662232 0.613291
vt 0.706774 0.644086
vt 0.584939 0.608177
vt 0.609404 0.576767
vt 0.557344 0.640930
vt 0.537559 0.584564
vt 0.555928 0.539796
vt 0.495238 0.561098
vt 0.510923 0.508681
vt 0.515332 0.632610
vt 0.476602 0.623382
vt 0.511867 0.685906
vt 0.458191 0.684911
vt 0.508457 0.733766
vt 0.442669 0.736790
vt 0.630148 0.542785
vt 0.679765 0.562549
vt 0.724228 0.580582
vt 0.691159 0.504460
vt 0.730324 0.503544
vt 0.651043 0.505399
vt 0.677058 0.446968
vt 0.720629 0.426874
vt 0.657169 0.397103
vt 0.700221 0.364258
vt 0.628421 0.469033
vt 0.606109 0.436059
vt 0.591323 0.506798
vt 0.554422 0.475493
vt 0.766758 0.502691
vt 0.773187 0.570173
vt 0.766598 0.632747
vt 0.825898 0.553183
vt 0.838519 0.606171
vt 0.808420 0.501716
vt 0.872732 0.500211
vt 0.908532 0.560895
vt 0.905653 0.437920
vt 0.967224 0.498001
vt 0.823470 0.449488
vt 0.833597 0.395967
vt 0.770021 0.434982
vt 0.760511 0.372785
vt 0.835787 0.662124
vt 0.774370 0.690819
vt 0.717296 0.704059
vt 0.769215 0.758414
vt 0.717834 0.780731
vt 0.825427 0.726119
vt 0.783578 0.822757
vt 0.700203 0.862224
vt 0.792234 0.887841
vt 0.662092 0.939348
vt 0.862507 0.751756
vt 0.904876 0.781049
vt 0.901055 0.652836
vt 0.965002 0.637949
vt 0.663804 0.787640
vt 0.661082 0.732324
vt 0.595679 0.750144
vt 0.609481 0.789466
vt 0.533487 0.777111
vt 0.471940 0.790182
vt 0.565935 0.821993
vt 0.519441 0.850370
vt 0.630788 0.850165
vt 0.584138 0.902964
vt 0.367590 0.618037
vt 0.412791 0.656260
vt 0.389354 0.698127
vt 0.336445 0.641800
vt 0.439169 0.609820
vt 0.399492 0.593697
vt 0.446984 0.557462
vt 0.456224 0.509962
vt 0.394422 0.551170
vt 0.391230 0.511484
vt 0.342664 0.564344
vt 0.327023 0.512988
vt 0.296093 0.575891
vt 0.272887 0.514257
vt 0.509524 0.384681
vt 0.533977 0.431633
vt 0.492801 0.457055
vt 0.471269 0.395712
vt 0.580200 0.405829
vt 0.551101 0.374404
vt 0.614329 0.364748
vt 0.645220 0.328034
vt 0.562604 0.335961
vt 0.573835 0.298430
vt 0.503569 0.331606
vt 0.497922 0.283958
vt 0.449998 0.335112
vt 0.432063 0.284017
vt 0.757244 0.247134
vt 0.765556 0.314413
vt 0.707924 0.303858
vt 0.704874 0.227245
vt 0.828250 0.340204
vt 0.814906 0.276764
vt 0.893882 0.346429
vt 0.958456 0.358311
vt 0.850747 0.249422
vt 0.891700 0.218179
vt 0.768580 0.182191
vt 0.774182 0.116773
vt 0.683448 0.146667
vt 0.641768 0.071412
vt 0.388397 0.918174
vt 0.494387 0.924266
vt 0.528309 0.980482
vt 0.373632 0.967522
vt 0.465384 0.865063
vt 0.401319 0.874986
vt 0.419112 0.815519
vt 0.388883 0.765329
vt 0.353234 0.831505
vt 0.316130 0.789536
vt 0.296480 0.865049
vt 0.233179 0.797952
vt 0.237257 0.893396
vt 0.148053 0.785539
vt 0.292863 0.740284
vt 0.344630 0.720601
vt 0.307471 0.663906
vt 0.274339 0.689184
vt 0.262604 0.613091
vt 0.231154 0.558595
vt 0.229948 0.657821
vt 0.188592 0.622372
vt 0.223196 0.728206
vt 0.158565 0.700157
vt 0.392560 0.471693
vt 0.444771 0.462946
vt 0.434512 0.411011
vt 0.395634 0.428975
vt 0.405989 0.365857
vt 0.380616 0.325134
vt 0.362626 0.406155
vt 0.330403 0.383877
vt 0.340242 0.460956
vt 0.293182 0.451603
vt 0.584282 0.263516
vt 0.650449 0.278255
vt 0.650578 0.222873
vt 0.596229 0.223591
vt 0.614671 0.161961
vt 0.565601 0.111403
vt 0.551207 0.193138
vt 0.503435 0.166968
vt 0.520895 0.239489
vt 0.458803 0.229314
vt 0.083611 0.518695
vt 0.110571 0.621381
vt 0.067589 0.671016
vt 0.032115 0.519903
vt 0.157913 0.575501
vt 0.128678 0.517638
vt 0.190732 0.516183
vt 0.229124 0.471923
vt 0.155170 0.458469
vt 0.183620 0.410211
vt 0.105731 0.414859
vt 0.149983 0.333920
vt 0.060470 0.367294
vt 0.135483 0.249124
vt 0.223271 0.372863
vt 0.257987 0.416014
vt 0.300425 0.363153
vt 0.266146 0.339454
vt 0.334889 0.304779
vt 0.376999 0.258028
vt 0.282257 0.287543
vt 0.303192 0.237256
vt 0.213230 0.302872
vt 0.219936 0.232736
vt 0.338290 0.193594
vt 0.404846 0.206478
vt 0.448748 0.154822
vt 0.384288 0.147910
vt 0.474949 0.094327
vt 0.506203 0.036584
vt 0.369358 0.105375
vt 0.352297 0.056772
vt 0.280027 0.162746
vt 0.219539 0.137206
vn -0.321447 -0.781156 0.535226
vn -0.108840 -0.734318 0.670023
vn -0.206782 -0.585552 0.783818
vn -0.425325 -0.671447 0.606842
vn 0.078984 -0.667589 0.740329
vn 0.000000 -0.468372 0.883532
vn 0.001729 -0.873933 0.486044
vn 0.162460 -0.840186 0.517391
vn -0.187592 -0.882301 0.431688
vn 0.022411 -0.968271 0.248898
vn 0.231890 -0.940142 0.249720
vn 0.025108 -0.998893 0.039784
vn 0.276393 -0.961039 -0.003293
vn -0.232123 -0.940375 0.248626
vn -0.262866 -0.961030 0.085579
vn -0.452458 -0.831947 0.321165
vn -0.528112 -0.840076 0.123975
vn -0.607095 -0.699289 0.377399
vn -0.723607 -0.673962 0.148890
vn 0.318649 -0.782952 0.534274
vn 0.284946 -0.621272 0.729950
vn 0.255597 -0.452814 0.854184
vn 0.518382 -0.540061 0.663034
vn 0.525731 -0.398421 0.751577
vn 0.491123 -0.687457 0.534977
vn 0.709681 -0.498324 0.498023
vn 0.750411 -0.309580 0.583989
vn 0.829395 -0.450368 0.330565
vn 0.894427 -0.209462 0.395127
vn 0.607706 -0.699279 0.376434
vn 0.688191 -0.688003 0.230314
vn 0.416196 -0.855224 0.308825
vn 0.487487 -0.866155 0.110151
vn 0.518382 -0.245642 0.819109
vn 0.284946 -0.255445 0.923880
vn 0.078984 -0.238039 0.968039
vn 0.318649 -0.002751 0.947869
vn 0.162460 0.043345 0.985763
vn 0.491123 -0.056930 0.869228
vn 0.416196 0.224403 0.881149
vn 0.231890 0.320982 0.918258
vn 0.487486 0.394969 0.778689
vn 0.320293 0.457901 0.829300
vn 0.607706 0.080922 0.790028
vn 0.688191 0.195528 0.698686
vn 0.709681 -0.132497 0.691952
vn 0.829395 -0.020818 0.558275
vn 0.001729 0.088230 0.996099
vn -0.108840 -0.142398 0.983807
vn -0.206782 -0.320076 0.924550
vn -0.321446 -0.004547 0.946917
vn -0.425325 -0.125394 0.896312
vn -0.187592 0.137913 0.972517
vn -0.452457 0.201126 0.868810
vn -0.607095 0.080128 0.790579
vn -0.509603 0.284591 0.811981
vn -0.725231 0.157755 0.670189
vn -0.232123 0.322018 0.917836
vn -0.248648 0.398029 0.883033
vn 0.022411 0.337449 0.941077
vn 0.040942 0.442639 0.895765
vn -0.517314 -0.242737 0.820649
vn -0.352212 -0.438358 0.826915
vn -0.517314 -0.542967 0.661493
vn -0.607062 -0.372194 0.702102
vn -0.695830 -0.535987 0.478057
vn -0.813877 -0.492563 0.308196
vn -0.751166 -0.309178 0.583231
vn -0.850651 -0.246237 0.464500
vn -0.695830 -0.094834 0.711918
vn -0.813877 0.021378 0.580643
vn -0.464907 -0.819432 -0.335250
vn -0.519724 -0.849894 -0.086991
vn -0.686079 -0.720362 -0.101852
vn -0.587785 -0.714792 -0.378920
vn -0.286260 -0.954818 -0.079859
vn -0.303531 -0.913234 -0.271796
vn -0.044856 -0.986217 -0.159258
vn 0.152906 -0.961215 -0.229532
vn -0.141731 -0.912208 -0.384432
vn 0.000000 -0.883532 -0.468372
vn -0.307356 -0.787284 -0.534525
vn -0.152906 -0.729458 -0.666716
vn -0.438672 -0.647422 -0.623228
vn -0.276393 -0.542115 -0.793548
vn 0.694232 -0.672223 -0.257213
vn 0.592302 -0.803304 -0.062293
vn 0.438672 -0.879178 -0.186043
vn 0.587785 -0.714792 -0.378920
vn 0.749437 -0.657494 0.077756
vn 0.794654 -0.597970 -0.104671
vn 0.885787 -0.446404 0.126905
vn 0.957193 -0.248617 0.148226
vn 0.893965 -0.429331 -0.128453
vn 0.951057 -0.273026 -0.144735
vn 0.804670 -0.468047 -0.365293
vn 0.862692 -0.273830 -0.425182
vn 0.686079 -0.488605 -0.539037
vn 0.723607 -0.255038 -0.641365
vn 0.893965 0.347278 0.283238
vn 0.885787 0.145516 0.440689
vn 0.957193 0.016860 0.288958
vn 0.951057 0.273026 0.144735
vn 0.749437 0.304668 0.587811
vn 0.794654 0.422244 0.436158
vn 0.592302 0.502416 0.629886
vn 0.504140 0.576721 0.642834
vn 0.694232 0.590169 0.411998
vn 0.642275 0.655924 0.396542
vn 0.804670 0.565026 0.182352
vn 0.750351 0.649309 0.123980
vn 0.862692 0.505587 -0.012002
vn 0.787866 0.595751 -0.156041
vn -0.981560 0.109088 0.156971
vn -0.913509 0.070132 0.400727
vn -0.884338 0.178120 0.431531
vn -0.969420 0.193244 0.151269
vn -0.926355 -0.176413 0.332784
vn -0.982247 -0.087863 0.165744
vn -0.913509 -0.371021 0.166866
vn -0.862692 -0.505587 0.012003
vn -0.981560 -0.191142 -0.002185
vn -0.951057 -0.273026 -0.144735
vn -0.994627 0.048490 -0.091470
vn -0.957193 -0.016860 -0.288959
vn -0.978382 0.153029 -0.139104
vn -0.903828 0.110105 -0.413488
vn -0.893965 -0.347278 -0.283238
vn -0.804670 -0.565026 -0.182352
vn -0.694232 -0.590169 -0.411998
vn -0.794655 -0.422244 -0.436158
vn -0.592302 -0.502416 -0.629886
vn -0.487486 -0.394969 -0.778689
vn -0.749437 -0.304668 -0.587811
vn -0.688191 -0.195528 -0.698686
vn -0.885787 -0.145516 -0.440689
vn -0.829395 0.020818 -0.558275
vn 0.141731 -0.830155 -0.539217
vn 0.307357 -0.884263 -0.351584
vn 0.464907 -0.737379 -0.490035
vn 0.303531 -0.737508 -0.603284
vn 0.519724 -0.549005 -0.654584
vn 0.528112 -0.368891 -0.764864
vn 0.286259 -0.601993 -0.745426
vn 0.262866 -0.468554 -0.843421
vn 0.044856 -0.685329 -0.726851
vn -0.025108 -0.527707 -0.849055
vn 0.981560 -0.109088 -0.156970
vn 0.994627 -0.048489 0.091470
vn 0.981560 0.191142 0.002186
vn 0.982247 0.087863 -0.165744
vn 0.913509 0.371021 -0.166866
vn 0.813877 0.492563 -0.308196
vn 0.926355 0.176413 -0.332784
vn 0.850651 0.246238 -0.464500
vn 0.913509 -0.070132 -0.400727
vn 0.813877 -0.021378 -0.580643
vn -0.518382 0.245642 -0.819109
vn -0.709681 0.132497 -0.691952
vn -0.746783 0.221309 -0.627166
vn -0.523958 0.324575 -0.787476
vn -0.607706 -0.080922 -0.790028
vn -0.491124 0.056930 -0.869228
vn -0.416196 -0.224403 -0.881149
vn -0.231890 -0.320982 -0.918258
vn -0.318649 0.002751 -0.947869
vn -0.162460 -0.043345 -0.985763
vn -0.284946 0.255445 -0.923880
vn -0.078984 0.238039 -0.968039
vn -0.254361 0.363851 -0.896054
vn 0.031317 0.380801 -0.924127
vn -0.001729 -0.088230 -0.996099
vn -0.022411 -0.337450 -0.941077
vn 0.232123 -0.322018 -0.917836
vn 0.187593 -0.137914 -0.972517
vn 0.452458 -0.201126 -0.868810
vn 0.607095 -0.080128 -0.790579
vn 0.321447 0.004547 -0.946917
vn 0.425325 0.125394 -0.896312
vn 0.108840 0.142399 -0.983807
vn 0.206782 0.320076 -0.924550
vn 0.517314 0.242736 -0.820649
vn 0.695830 0.094834 -0.711918
vn 0.751166 0.309178 -0.583231
vn 0.607062 0.372194 -0.702102
vn 0.695830 0.535987 -0.478057
vn 0.661888 0.625706 -0.412790
vn 0.517314 0.542967 -0.661493
vn 0.472124 0.610527 -0.635889
vn 0.352212 0.438358 -0.826915
vn 0.263510 0.512520 -0.817243
s 1
g pPlatonic1
usemtl lambert2SG
f 55/1/1 56/2/2 52/3/3 14/4/4
f 52/3/3 56/2/2 53/5/5 1/6/6
f 53/5/5 56/2/2 54/7/7 12/8/8
f 54/7/7 56/2/2 55/1/1 15/9/9
f 54/7/7 60/10/10 57/11/11 12/8/8
f 57/11/11 60/10/10 58/12/12 3/13/13
f 58/12/12 60/10/10 59/14/14 13/15/15
f 59/14/14 60/10/10 54/7/7 15/9/9
f 59/14/14 63/16/16 61/17/17 13/15/15
f 61/17/17 63/16/16 62/18/18 2/19/19
f 62/18/18 63/16/16 55/1/1 14/4/4
f 55/1/1 63/16/16 59/14/14 15/9/9
f 66/20/20 67/21/21 53/5/5 12/8/8
f 53/5/5 67/21/21 64/22/22 1/6/6
f 64/22/22 67/21/21 65/23/23 16/24/24
f 65/23/23 67/21/21 66/20/20 18/25/25
f 65/23/23 71/26/26 68/27/27 16/24/24
f 68/27/27 71/26/26 69/28/28 4/29/29
f 69/28/28 71/26/26 70/30/30 17/31/31
f 70/30/30 71/26/26 65/23/23 18/25/25
f 70/30/30 73/32/32 72/33/33 17/31/31
f 72/33/33 73/32/32 57/11/11 3/13/13
f 57/11/11 73/32/32 66/20/20 12/8/8
f 66/20/20 73/32/32 70/30/30 18/25/25
f 76/34/34 77/35/35 64/22/22 16/24/24
f 64/22/22 77/35/35 74/36/36 1/6/6
f 74/36/36 77/35/35 75/37/37 19/38/38
f 75/37/37 77/35/35 76/34/34 21/39/39
f 75/37/37 81/40/40 78/41/41 19/38/38
f 78/41/41 81/40/40 79/42/42 5/43/43
f 79/42/42 81/40/40 80/44/44 20/45/45
f 80/44/44 81/40/40 75/37/37 21/39/39
f 80/44/44 83/46/46 82/47/47 20/45/45
f 82/47/47 83/46/46 68/27/27 4/29/29
f 68/27/27 83/46/46 76/34/34 16/24/24
f 76/34/34 83/46/46 80/44/44 21/39/39
f 86/48/48 87/49/49 74/36/36 19/38/38
f 74/36/36 87/49/49 84/50/50 1/6/6
f 84/50/50 87/49/49 85/51/51 22/52/52
f 85/51/51 87/49/49 86/48/48 24/53/53
f 85/51/51 91/54/54 88/55/55 22/52/52
f 88/55/55 91/54/54 89/56/56 6/57/57
f 89/56/56 91/54/54 90/58/58 23/59/59
f 90/58/58 91/54/54 85/51/51 24/53/53
f 90/58/58 93/60/60 92/61/61 23/59/59
f 92/61/61 93/60/60 78/41/41 5/43/43
f 78/41/41 93/60/60 86/48/48 19/38/38
f 86/48/48 93/60/60 90/58/58 24/53/53
f 95/62/62 96/63/63 84/50/50 22/52/52
f 84/50/50 96/63/63 52/3/3 1/6/6
f 52/3/3 96/63/63 94/64/64 14/4/4
f 94/64/64 96/63/63 95/62/62 26/65/65
f 94/64/64 99/66/66 62/18/18 14/4/4
f 62/18/18 99/66/66 97/67/67 2/19/19
f 97/67/67 99/66/66 98/68/68 25/69/69
f 98/68/68 99/66/66 94/64/64 26/65/65
f 98/68/68 101/70/70 100/71/71 25/69/69
f 100/71/71 101/70/70 88/55/55 6/57/57
f 88/55/55 101/70/70 95/62/62 22/52/52
f 95/62/62 101/70/70 98/68/68 26/65/65
f 104/72/72 105/73/73 102/74/74 28/75/75
f 102/74/74 105/73/73 61/17/17 2/19/19
f 61/17/17 105/73/73 103/76/76 13/15/15
f 103/76/76 105/73/73 104/72/72 29/77/77
f 103/76/76 108/78/78 58/12/12 13/15/15
f 58/12/12 108/78/78 106/79/79 3/13/13
f 106/79/79 108/78/78 107/80/80 27/81/81
f 107/80/80 108/78/78 103/76/76 29/77/77
f 107/80/80 111/82/82 109/83/83 27/81/81
f 109/83/83 111/82/82 110/84/84 8/85/85
f 110/84/84 111/82/82 104/72/72 28/75/75
f 104/72/72 111/82/82 107/80/80 29/77/77
f 114/86/86 115/87/87 112/88/88 31/89/89
f 112/88/88 115/87/87 72/33/33 3/13/13
f 72/33/33 115/87/87 113/90/90 17/31/31
f 113/90/90 115/87/87 114/86/86 32/91/91
f 113/90/90 118/92/92 69/28/28 17/31/31
f 69/28/28 118/92/92 116/93/93 4/29/29
f 116/93/93 118/92/92 117/94/94 30/95/95
f 117/94/94 118/92/92 113/90/90 32/91/91
f 117/94/94 121/96/96 119/97/97 30/95/95
f 119/97/97 121/96/96 120/98/98 9/99/99
f 120/98/98 121/96/96 114/86/86 31/89/89
f 114/86/86 121/96/96 117/94/94 32/91/91
f 124/100/100 125/101/101 122/102/102 34/103/103
f 122/102/102 125/101/101 82/47/47 4/29/29
f 82/47/47 125/101/101 123/104/104 20/45/45
f 123/104/104 125/101/101 124/100/100 35/105/105
f 123/104/104 128/106/106 79/42/42 20/45/45
f 79/42/42 128/106/106 126/107/107 5/43/43
f 126/107/107 128/106/106 127/108/108 33/109/109
f 127/108/108 128/106/106 123/104/104 35/105/105
f 127/108/108 131/110/110 129/111/111 33/109/109
f 129/111/111 131/110/110 130/112/112 10/113/113
f 130/112/112 131/110/110 124/100/100 34/103/103
f 124/100/100 131/110/110 127/108/108 35/105/105
f 134/114/114 135/115/115 132/116/116 37/117/117
f 132/116/116 135/115/115 100/71/71 6/57/57
f 100/71/71 135/115/115 133/118/118 25/69/69
f 133/118/118 135/115/115 134/114/114 38/119/119
f 133/118/118 138/120/120 97/67/67 25/69/69
f 97/67/67 138/120/120 136/121/121 2/19/19
f 136/121/121 138/120/120 137/122/122 36/123/123
f 137/122/122 138/120/120 133/118/118 38/119/119
f 137/122/122 141/124/124 139/125/125 36/123/123
f 139/125/125 141/124/124 140/126/126 7/127/127
f 140/126/126 141/124/124 134/114/114 37/117/117
f 134/114/114 141/124/124 137/122/122 38/119/119
f 143/128/128 144/129/129 136/121/121 36/123/123
f 136/121/121 144/129/129 102/74/74 2/19/19
f 102/74/74 144/129/129 142/130/130 28/75/75
f 142/130/130 144/129/129 143/128/128 40/131/131
f 142/130/130 147/132/132 110/84/84 28/75/75
f 110/84/84 147/132/132 145/133/133 8/85/85
f 145/133/133 147/132/132 146/134/134 39/135/135
f 146/134/134 147/132/132 142/130/130 40/131/131
f 146/134/134 149/136/136 148/137/137 39/135/135
f 148/137/137 149/136/136 139/125/125 7/127/127
f 139/125/125 149/136/136 143/128/128 36/123/123
f 143/128/128 149/136/136 146/134/134 40/131/131
f 151/138/138 152/139/139 106/79/79 27/81/81
f 106/79/79 152/139/139 112/88/88 3/13/13
f 112/88/88 152/139/139 150/140/140 31/89/89
f 150/140/140 152/139/139 151/138/138 42/141/141
f 150/140/140 155/142/142 120/98/98 31/89/89
f 120/98/98 155/142/142 153/143/143 9/99/99
f 153/143/143 155/142/142 154/144/144 41/145/145
f 154/144/144 155/142/142 150/140/140 42/141/141
f 154/144/144 157/146/146 156/147/147 41/145/145
f 156/147/147 157/146/146 109/83/83 8/85/85
f 109/83/83 157/146/146 151/138/138 27/81/81
f 151/138/138 157/146/146 154/144/144 42/141/141
f 159/148/148 160/149/149 116/93/93 30/95/95
f 116/93/93 160/149/149 122/102/102 4/29/29
f 122/102/102 160/149/149 158/150/150 34/103/103
f 158/150/150 160/149/149 159/148/148 44/151/151
f 158/150/150 163/152/152 130/112/112 34/103/103
f 130/112/112 163/152/152 161/153/153 10/113/113
f 161/153/153 163/152/152 162/154/154 43/155/155
f 162/154/154 163/152/152 158/150/150 44/151/151
f 162/154/154 165/156/156 164/157/157 43/155/155
f 164/157/157 165/156/156 119/97/97 9/99/99
f 119/97/97 165/156/156 159/148/148 30/95/95
f 159/148/148 165/156/156 162/154/154 44/151/151
f 168/158/158 169/159/159 166/160/160 46/161/161
f 166/160/160 169/159/159 148/137/137 7/127/127
f 148/137/137 169/159/159 167/162/162 39/135/135
f 167/162/162 169/159/159 168/158/158 47/163/163
f 167/162/162 172/164/164 145/133/133 39/135/135
f 145/133/133 172/164/164 170/165/165 8/85/85
f 170/165/165 172/164/164 171/166/166 45/167/167
f 171/166/166 172/164/164 167/162/162 47/163/163
f 171/166/166 175/168/168 173/169/169 45/167/167
f 173/169/169 175/168/168 174/170/170 11/171/171
f 174/170/170 175/168/168 168/158/158 46/161/161
f 168/158/158 175/168/168 171/166/166 47/163/163
f 177/172/172 178/173/173 170/165/165 45/167/167
f 170/165/165 178/173/173 156/147/147 8/85/85
f 156/147/147 178/173/173 176/174/174 41/145/145
f 176/174/174 178/173/173 177/172/172 49/175/175
f 176/174/174 181/176/176 153/143/143 41/145/145
f 153/143/143 181/176/176 179/177/177 9/99/99
f 179/177/177 181/176/176 180/178/178 48/179/179
f 180/178/178 181/176/176 176/174/174 49/175/175
f 180/178/178 183/180/180 182/181/181 48/179/179
f 182/181/181 183/180/180 173/169/169 11/171/171
f 173/169/169 183/180/180 177/172/172 45/167/167
f 177/172/172 183/180/180 180/178/178 49/175/175
f 185/182/182 186/183/183 179/177/177 48/179/179
f 179/177/177 186/183/183 164/157/157 9/99/99
f 164/157/157 186/183/183 184/184/184 43/155/155
f 184/184/184 186/183/183 185/182/182 51/185/185
f 184/184/184 189/186/186 161/153/153 43/155/155
f 161/153/153 189/186/186 187/187/187 10/113/113
f 187/187/187 189/186/186 188/188/188 50/189/189
f 188/188/188 189/186/186 184/184/184 51/185/185
f 188/188/188 191/190/190 190/191/191 50/189/189
f 190/191/191 191/190/190 182/181/181 11/171/171
f 182/181/181 191/190/190 185/182/182 48/179/179
f 185/182/182 191/190/190 188/188/188 51/185/185
